HIERARCHY
ROOT hip
{
  OFFSET 0 0 0
  CHANNELS 6 Xposition Yposition Zposition Zrotation Yrotation Xrotation
  JOINT abdomen
  {
    OFFSET 0 20.6881 -0.73152
    CHANNELS 3 Zrotation Xrotation Yrotation
    JOINT chest
    {
      OFFSET 0 11.7043 -0.48768
      CHANNELS 3 Zrotation Xrotation Yrotation
      JOINT neck
      {
        OFFSET 0 22.1894 -2.19456
        CHANNELS 3 Zrotation Xrotation Yrotation
        JOINT head
        {
          OFFSET -0.24384 7.07133 1.2192
          CHANNELS 3 Zrotation Xrotation Yrotation
          JOINT leftEye
          {
            OFFSET 4.14528 8.04674 8.04672
            CHANNELS 3 Zrotation Xrotation Yrotation
            End Site
            {
              OFFSET 1 0 0
            }
          }
          JOINT rightEye
          {
            OFFSET -3.6576 8.04674 8.04672
            CHANNELS 3 Zrotation Xrotation Yrotation
            End Site
            {
              OFFSET 1 0 0
            }
          }
        }
      }
      JOINT rCollar
      {
        OFFSET -2.68224 19.2634 -4.8768
        CHANNELS 3 Zrotation Xrotation Yrotation
        JOINT rShldr
        {
          OFFSET -8.77824 -1.95073 1.46304
          CHANNELS 3 Zrotation Xrotation Yrotation
          JOINT rForeArm
          {
            OFFSET -28.1742 -1.7115 0.48768
            CHANNELS 3 Zrotation Xrotation Yrotation
            JOINT rHand
            {
              OFFSET -22.5879 0.773209 7.07136
              CHANNELS 3 Zrotation Xrotation Yrotation
              JOINT rThumb1
              {
                OFFSET -1.2192 -0.487915 3.41376
                CHANNELS 3 Zrotation Xrotation Yrotation
                JOINT rThumb2
                {
                  OFFSET -3.37035 -0.52449 3.41376
                  CHANNELS 3 Zrotation Xrotation Yrotation
                  End Site
                  {
                    OFFSET -1.78271 -1.18214 1.43049
                  }
                }
              }
              JOINT rIndex1
              {
                OFFSET -7.75947 0.938293 5.60832
                CHANNELS 3 Zrotation Xrotation Yrotation
                JOINT rIndex2
                {
                  OFFSET -2.54057 -0.884171 1.56538
                  CHANNELS 3 Zrotation Xrotation Yrotation
                  End Site
                  {
                    OFFSET -1.62519 -0.234802 1.16502
                  }
                }
              }
              JOINT rMid1
              {
                OFFSET -8.24714 1.18213 3.41376
                CHANNELS 3 Zrotation Xrotation Yrotation
                JOINT rMid2
                {
                  OFFSET -3.10165 -0.590103 1.0647
                  CHANNELS 3 Zrotation Xrotation Yrotation
                  End Site
                  {
                    OFFSET -2.48547 -0.328903 0.83742
                  }
                }
              }
              JOINT rRing1
              {
                OFFSET -8.82822 0.546677 1.51678
                CHANNELS 3 Zrotation Xrotation Yrotation
                JOINT rRing2
                {
                  OFFSET -2.60934 -0.819778 -0.0198488
                  CHANNELS 3 Zrotation Xrotation Yrotation
                  End Site
                  {
                    OFFSET -2.33842 -0.294052 0.168128
                  }
                }
              }
              JOINT rPinky1
              {
                OFFSET -8.27202 -0.0477905 -0.4584
                CHANNELS 3 Zrotation Xrotation Yrotation
                JOINT rPinky2
                {
                  OFFSET -1.82734 -0.647385 -0.700984
                  CHANNELS 3 Zrotation Xrotation Yrotation
                  End Site
                  {
                    OFFSET -1.69225 -0.51767 -0.607171
                  }
                }
              }
            }
          }
        }
      }
      JOINT lCollar
      {
        OFFSET 2.68224 19.2634 -4.8768
        CHANNELS 3 Zrotation Xrotation Yrotation
        JOINT lShldr
        {
          OFFSET 8.77824 -1.95073 1.46304
          CHANNELS 3 Zrotation Xrotation Yrotation
          JOINT lForeArm
          {
            OFFSET 28.1742 -1.7115 0.48768
            CHANNELS 3 Zrotation Xrotation Yrotation
            JOINT lHand
            {
              OFFSET 22.5879 0.773209 7.07136
              CHANNELS 3 Zrotation Xrotation Yrotation
              JOINT lThumb1
              {
                OFFSET 1.2192 -0.487915 3.41376
                CHANNELS 3 Zrotation Xrotation Yrotation
                JOINT lThumb2
                {
                  OFFSET 3.37035 -0.52449 3.41376
                  CHANNELS 3 Zrotation Xrotation Yrotation
                  End Site
                  {
                    OFFSET 1.78271 -1.18214 1.43049
                  }
                }
              }
              JOINT lIndex1
              {
                OFFSET 7.75947 0.938293 5.60832
                CHANNELS 3 Zrotation Xrotation Yrotation
                JOINT lIndex2
                {
                  OFFSET 2.54057 -0.884171 1.56538
                  CHANNELS 3 Zrotation Xrotation Yrotation
                  End Site
                  {
                    OFFSET 1.62519 -0.234802 1.16502
                  }
                }
              }
              JOINT lMid1
              {
                OFFSET 8.24714 1.18213 3.41376
                CHANNELS 3 Zrotation Xrotation Yrotation
                JOINT lMid2
                {
                  OFFSET 3.10165 -0.590103 1.0647
                  CHANNELS 3 Zrotation Xrotation Yrotation
                  End Site
                  {
                    OFFSET 2.48547 -0.328903 0.83742
                  }
                }
              }
              JOINT lRing1
              {
                OFFSET 8.82822 0.546677 1.51678
                CHANNELS 3 Zrotation Xrotation Yrotation
                JOINT lRing2
                {
                  OFFSET 2.60934 -0.819778 -0.0198488
                  CHANNELS 3 Zrotation Xrotation Yrotation
                  End Site
                  {
                    OFFSET 2.33842 -0.294052 0.168128
                  }
                }
              }
              JOINT lPinky1
              {
                OFFSET 8.27202 -0.0477905 -0.4584
                CHANNELS 3 Zrotation Xrotation Yrotation
                JOINT lPinky2
                {
                  OFFSET 1.82734 -0.647385 -0.700984
                  CHANNELS 3 Zrotation Xrotation Yrotation
                  End Site
                  {
                    OFFSET 1.69225 -0.51767 -0.607171
                  }
                }
              }
            }
          }
        }
      }
    }
  }
  JOINT rButtock
  {
    OFFSET -8.77824 4.35084 1.2192
    CHANNELS 3 Zrotation Xrotation Yrotation
    JOINT rThigh
    {
      OFFSET 0 -1.70687 -2.19456
      CHANNELS 3 Zrotation Xrotation Yrotation
      JOINT rShin
      {
        OFFSET 0 -36.8199 0.73152
        CHANNELS 3 Zrotation Xrotation Yrotation
        JOINT rFoot
        {
          OFFSET 0.73152 -45.1104 -5.12064
          CHANNELS 3 Zrotation Xrotation Yrotation
          End Site
          {
            OFFSET -1.1221 -3.69964 12.103
          }
        }
      }
    }
  }
  JOINT lButtock
  {
    OFFSET 8.77824 4.35084 1.2192
    CHANNELS 3 Zrotation Xrotation Yrotation
    JOINT lThigh
    {
      OFFSET 0 -1.70687 -2.19456
      CHANNELS 3 Zrotation Xrotation Yrotation
      JOINT lShin
      {
        OFFSET 0 -36.8199 0.73152
        CHANNELS 3 Zrotation Xrotation Yrotation
        JOINT lFoot
        {
          OFFSET -0.73152 -45.1104 -5.12064
          CHANNELS 3 Zrotation Xrotation Yrotation
          End Site
          {
            OFFSET 1.1221 -3.69964 12.103
          }
        }
      }
    }
  }
}
MOTION
Frames:	5
Frame Time:	0.03333
0.0 0.0 0.0 0.0 0.0 0.0 0.0 0.0 0.0 0.0 0.0 0.0 0.0 0.0 0.0 0.0 0.0 0.0 0.0 0.0 0.0 0.0 0.0 0.0 0.0 0.0 0.0 0.0 0.0 0.0 0.0 0.0 0.0 0.0 0.0 0.0 0.0 0.0 0.0 0.0 0.0 0.0 0.0 0.0 0.0 0.0 0.0 0.0 0.0 0.0 0.0 0.0 0.0 0.0 0.0 0.0 0.0 0.0 0.0 0.0 0.0 0.0 0.0 0.0 0.0 0.0 0.0 0.0 0.0 0.0 0.0 0.0 0.0 0.0 0.0 0.0 0.0 0.0 0.0 0.0 0.0 0.0 0.0 0.0 0.0 0.0 0.0 0.0 0.0 0.0 0.0 0.0 0.0 0.0 0.0 0.0 0.0 0.0 0.0 0.0 0.0 0.0 0.0 0.0 0.0 0.0 0.0 0.0 0.0 0.0 0.0 0.0 0.0 0.0 0.0 0.0 0.0 0.0 0.0 0.0 0.0 0.0 0.0 0.0 0.0 0.0 0.0 0.0 0.0 0.0 0.0 0.0
-0.014100000000000001 3.5835 0.0344 -2.657497 -79.303377 -1.304108 27.781861 15.20828 116.470209 119.542086 39.344194 127.354953 94.51595 40.579793 -3.846706 -25.587486 -17.805965 -96.224128 -82.123449 -13.767822 15.779634 -52.513562 -10.549011 21.200276 56.304765 83.893563 98.880706 42.006911 -28.14751 25.727644 43.235204 -80.161905 41.939314 60.357814 -82.140083 -116.78855 173.043469 34.445128 133.162138 45.137188 -64.738757 61.980749 -15.076319 19.753063 -39.039937 -22.09262 55.109567 -166.642251 33.472187 -59.086189 -169.479758 -129.645362 72.475425 -49.623803 -152.298113 -10.65827 -173.598334 66.581974 -39.017639 -144.326299 -162.2943 -1.354047 175.023525 14.900752 -3.769795 -173.813848 -149.223258 29.991486 -19.085681 -101.018235 -79.894548 96.3925 -93.105144 71.588916 140.541937 154.075505 50.720808 -136.984786 -111.62864 2.476857 33.230021 164.968668 -5.511173 83.458161 -70.843269 52.097265 68.833986 -61.061833 44.532169 -93.554517 -168.141159 17.615759 4.580645 -163.777945 -40.701935 41.300481 -141.512833 24.112596 -23.053066 -25.886733 -40.33127 -174.887223 -102.844468 62.679449 -95.762751 -117.997899 50.264375 -110.408236 94.382195 9.000837 -76.739818 -113.020853 -71.553424 -11.09856 0.473553 24.093849 -162.493713 -81.198806 15.879086 127.725389 84.194409 -75.376377 132.511442 98.523827 37.961223 -95.267382 -13.96718 -10.087323 -112.563854 -108.777365 -53.030585 -110.204883
-0.0689 4.6941999999999995 0.053200000000000004 -165.36788 -82.702247 170.142734 -4.594571 8.949624 0.526756 176.365481 -31.1111 -99.456862 132.47297 -1.989904 -40.209562 65.929823 -34.286804 -17.581938 -157.263616 0.781345 3.884746 -0.402812 -0.018175 5.166977 -148.895403 55.597631 -4.490102 15.745754 -59.993035 16.777215 172.882967 46.508066 45.100182 -175.12924 -3.174855 163.823587 -175.748247 22.873054 102.839613 0.677162 -74.62131 3.350279 -177.380923 -12.376123 132.914661 83.33056 -53.871159 -154.137674 -0.079955 -14.950727 -159.707492 173.247036 28.909655 -16.338429 141.411081 21.181035 13.589846 125.590363 6.217692 -151.728454 -100.937637 -24.848589 -13.234796 -132.188544 -13.343971 -68.362906 36.405861 -6.066349 -160.020662 -123.725846 -63.309246 62.926889 3.688514 16.626738 -92.623636 -48.173112 27.438935 59.994116 -59.86835 -56.963005 -64.866395 33.006565 34.575714 -23.884874 52.549205 44.409917 -46.633289 20.776508 59.23335 91.852527 15.612529 62.121701 -95.797851 -46.611043 -6.029175 41.447393 -118.740504 -73.501931 -122.316309 110.283979 -47.742492 79.582749 72.931583 -21.576761 -130.862901 27.620741 -49.610862 -135.985138 -83.50284 -1.267255 -44.750806 123.085934 12.246414 -53.625644 -67.646557 36.309353 -150.194507 75.942662 7.828668 -140.781835 -71.343654 54.993958 -46.942154 103.186688 -16.21667 -86.256254 -56.296967 -44.594277 117.2669 121.903746 3.043293 88.697182
-0.1292 6.1076 0.0156 -87.097289 -88.187426 95.686492 -12.60836 12.467114 -112.096431 165.414005 20.462571 128.435991 152.035835 4.567099 93.158289 -59.967112 23.220851 -156.740519 -135.782143 6.047599 14.817482 -14.255493 -8.247848 59.933913 80.043323 -41.237143 -158.806241 -144.690347 -8.060189 156.372154 36.528447 2.385043 -168.556865 -166.188832 37.901498 134.592766 -7.538411 -21.622527 -21.901676 -176.548835 -59.680919 96.749326 -25.254569 -5.041636 -23.507913 -174.232855 5.035964 -69.016098 144.303711 14.046398 -43.262031 157.955468 -47.929902 -72.771226 115.309199 6.891256 -9.481119 51.240675 44.273419 6.595166 92.897758 -7.383732 -71.012885 -60.420401 -9.720463 -9.174437 -48.357347 51.91874 -62.345516 -66.640636 -37.621129 140.368299 -179.841151 7.676934 -47.274316 -87.871589 -4.276719 -92.310288 14.853132 -68.915032 19.250641 -22.595167 -40.836038 -24.8816 154.709907 17.413487 -92.114401 -94.842563 74.301203 47.309927 -145.923652 -52.223192 -36.993256 -165.17556 22.60161 -66.994092 -165.157025 -43.170129 -161.207678 -172.42765 -0.626278 152.978244 -174.630769 -44.395852 -128.645145 114.154787 -54.99669 -30.626806 31.672798 37.824558 62.961226 -72.38855 -43.958511 102.426327 108.514308 -80.961927 135.792555 150.405531 -4.703397 -84.934293 37.062431 6.491819 -0.0 -88.119339 -46.266374 -88.486114 -98.9631 23.893754 -109.137544 -106.923496 35.671133 -95.365122
-0.2002 7.4460999999999995 -0.0075 -4.805161 -83.2449 13.723632 -25.41734 34.333759 -102.675856 176.120269 2.449678 131.074558 148.77291 16.856297 175.394631 43.525909 39.487599 70.776073 -119.20901 12.041218 20.385537 -147.811702 23.854488 72.415949 -109.960105 55.137193 -36.340888 -55.38876 -57.869253 -43.601378 -126.583028 -4.773652 -10.87442 45.30919 -64.312876 27.796571 -166.023945 22.079809 105.803469 165.762903 -63.5965 92.003157 -177.166679 -25.180542 146.35511 -159.047662 1.047187 -70.327624 145.996751 23.552043 -32.802088 4.829795 46.482149 -169.02367 -41.024622 9.025032 -170.599996 -75.927299 24.032174 97.507839 84.24007 -5.367369 18.070684 166.456328 -10.54458 -56.150529 -65.861361 29.973401 -45.869774 -178.489295 -61.17479 57.384957 -132.315168 81.83135 -97.808278 -94.409786 -4.963236 -98.346529 -178.596829 34.271696 -101.54975 30.678947 33.980414 -36.957369 -108.806883 -55.781884 -77.584976 -107.526581 10.205538 -57.919443 -7.833944 54.902824 -58.387602 31.201436 9.156299 76.301535 95.08876 42.380085 -99.082774 -16.608299 2.287284 -13.683194 57.029114 25.729416 -126.737515 -128.996085 -54.987991 -11.283821 -64.572215 9.837487 -25.455545 114.490822 -13.280678 -28.93352 -87.136919 51.197073 -173.112168 -147.20138 3.18443 179.344727 117.237658 39.236545 39.88236 -164.655316 6.610442 -48.371185 -85.95052 19.449626 53.046293 -158.21328 46.626231 -39.024643
